<svg width="955" height="486" viewBox="0 0 955 486" fill="none" xmlns="http://www.w3.org/2000/svg">
<rect x="9" y="142" width="118" height="324" rx="10" fill="#FF9292"/>
<path d="M26.7107 26.4465C20.741 19.2176 8.99999 23.4389 8.99999 32.8141V150C8.99999 155.523 13.4771 160 19 160H115.773C124.23 160 128.869 150.154 123.484 143.632L26.7107 26.4465Z" fill="#FF9292"/>
<rect x="3" y="173" width="131" height="44" fill="#CACACA"/>
<rect y="217" width="137" height="216" fill="#4D4D4D"/>
<rect y="422" width="137" height="52" rx="10" fill="#757575"/>
<path d="M405.659 96.0909V387H345.148V96.0909H405.659ZM454.132 387V168.818H514.643V387H454.132ZM484.53 140.693C475.534 140.693 467.816 137.71 461.376 131.744C455.032 125.684 451.859 118.439 451.859 110.011C451.859 101.678 455.032 94.5284 461.376 88.5625C467.816 82.5019 475.534 79.4716 484.53 79.4716C493.526 79.4716 501.196 82.5019 507.541 88.5625C513.981 94.5284 517.2 101.678 517.2 110.011C517.2 118.439 513.981 125.684 507.541 131.744C501.196 137.71 493.526 140.693 484.53 140.693ZM563.116 468.818V168.818H622.776V205.466H625.474C628.126 199.595 631.961 193.629 636.98 187.568C642.094 181.413 648.723 176.299 656.866 172.227C665.105 168.061 675.332 165.977 687.548 165.977C703.457 165.977 718.135 170.144 731.582 178.477C745.029 186.716 755.777 199.169 763.827 215.835C771.876 232.407 775.901 253.193 775.901 278.193C775.901 302.53 771.971 323.08 764.111 339.841C756.346 356.508 745.74 369.15 732.293 377.767C718.94 386.29 703.978 390.551 687.406 390.551C675.664 390.551 665.673 388.61 657.435 384.727C649.291 380.845 642.615 375.968 637.406 370.097C632.198 364.131 628.221 358.117 625.474 352.057H623.628V468.818H563.116ZM622.349 277.909C622.349 290.883 624.149 302.199 627.747 311.858C631.346 321.517 636.554 329.045 643.372 334.443C650.19 339.746 658.476 342.398 668.23 342.398C678.079 342.398 686.412 339.699 693.23 334.301C700.048 328.809 705.209 321.233 708.713 311.574C712.312 301.82 714.111 290.598 714.111 277.909C714.111 265.314 712.359 254.235 708.855 244.67C705.351 235.106 700.19 227.625 693.372 222.227C686.554 216.83 678.173 214.131 668.23 214.131C658.382 214.131 650.048 216.735 643.23 221.943C636.507 227.152 631.346 234.538 627.747 244.102C624.149 253.667 622.349 264.936 622.349 277.909Z" fill="#FF9292"/>
<path d="M954.354 451.5C954.354 470.554 936.331 486 914.098 486C891.864 486 873.841 470.554 873.841 451.5C873.841 432.446 891.864 417 914.098 417C936.331 417 954.354 432.446 954.354 451.5Z" fill="#4D4D4D"/>
</svg>
