<svg width="1066" height="486" viewBox="0 0 1066 486" fill="none" xmlns="http://www.w3.org/2000/svg">
<rect x="9" y="142" width="118" height="324" rx="10" fill="#FF9292"/>
<path d="M26.7107 26.4465C20.741 19.2176 8.99999 23.4389 8.99999 32.8141V150C8.99999 155.523 13.4771 160 19 160H115.773C124.23 160 128.869 150.154 123.484 143.632L26.7107 26.4465Z" fill="#FF9292"/>
<rect x="3" y="173" width="131" height="44" fill="#CACACA"/>
<rect y="217" width="137" height="216" fill="#4D4D4D"/>
<rect y="422" width="137" height="52" rx="10" fill="#757575"/>
<path d="M405.64 96.0909V387H345.129V96.0909H405.64ZM454.113 387V168.818H514.624V387H454.113ZM484.511 140.693C475.514 140.693 467.797 137.71 461.357 131.744C455.013 125.684 451.84 118.439 451.84 110.011C451.84 101.678 455.013 94.5284 461.357 88.5625C467.797 82.5019 475.514 79.4716 484.511 79.4716C493.507 79.4716 501.177 82.5019 507.522 88.5625C513.961 94.5284 517.181 101.678 517.181 110.011C517.181 118.439 513.961 125.684 507.522 131.744C501.177 137.71 493.507 140.693 484.511 140.693ZM563.097 468.818V168.818H622.756V205.466H625.455C628.107 199.595 631.942 193.629 636.961 187.568C642.075 181.413 648.703 176.299 656.847 172.227C665.086 168.061 675.313 165.977 687.529 165.977C703.438 165.977 718.116 170.144 731.563 178.477C745.01 186.716 755.758 199.169 763.808 215.835C771.857 232.407 775.881 253.193 775.881 278.193C775.881 302.53 771.952 323.08 764.092 339.841C756.327 356.508 745.72 369.15 732.273 377.767C718.921 386.29 703.959 390.551 687.387 390.551C675.645 390.551 665.654 388.61 657.416 384.727C649.272 380.845 642.595 375.968 637.387 370.097C632.179 364.131 628.202 358.117 625.455 352.057H623.609V468.818H563.097ZM622.33 277.909C622.33 290.883 624.13 302.199 627.728 311.858C631.327 321.517 636.535 329.045 643.353 334.443C650.171 339.746 658.457 342.398 668.211 342.398C678.059 342.398 686.393 339.699 693.211 334.301C700.029 328.809 705.19 321.233 708.694 311.574C712.292 301.82 714.092 290.598 714.092 277.909C714.092 265.314 712.34 254.235 708.836 244.67C705.332 235.106 700.171 227.625 693.353 222.227C686.535 216.83 678.154 214.131 668.211 214.131C658.362 214.131 650.029 216.735 643.211 221.943C636.487 227.152 631.327 234.538 627.728 244.102C624.13 253.667 622.33 264.936 622.33 277.909Z" fill="#FF9292"/>
<path d="M954.354 451.5C954.354 470.554 936.331 486 914.098 486C891.864 486 873.841 470.554 873.841 451.5C873.841 432.446 891.864 417 914.098 417C936.331 417 954.354 432.446 954.354 451.5Z" fill="#4D4D4D"/>
</svg>
